<?xml version="1.0" encoding="UTF-8" standalone="no"?>
<!DOCTYPE svg PUBLIC "-//W3C//DTD SVG 1.1//EN"
 "http://www.w3.org/Graphics/SVG/1.1/DTD/svg11.dtd">
<!-- Generated by graphviz version 12.2.1 (0)
 -->
<!-- Title: container::split Pages: 1 -->
<svg width="222pt" height="66pt"
 viewBox="0.00 0.00 222.25 66.00" xmlns="http://www.w3.org/2000/svg" xmlns:xlink="http://www.w3.org/1999/xlink">
<g id="graph0" class="graph" transform="scale(1 1) rotate(0) translate(4 62)">
<title>container::split</title>
<!-- Node1 -->
<g id="Node000001" class="node">
<title>Node1</title>
<g id="a_Node000001"><a xlink:title="Split a string on a delimieter(s)">
<polygon fill="#999999" stroke="#666666" points="79.75,-39 0,-39 0,-19 79.75,-19 79.75,-39"/>
<text text-anchor="middle" x="39.88" y="-25.5" font-family="Helvetica,sans-Serif" font-size="10.00">container::split</text>
</a>
</g>
</g>
<!-- Node2 -->
<g id="Node000002" class="node">
<title>Node2</title>
<g id="a_Node000002"><a xlink:href="namespacecontainer.html#a4d35060a24029e77189fd13e87c7bc89" target="_top" xlink:title="A compatability overload to check if a given character is contained in a single or multiple delimeter...">
<polygon fill="white" stroke="#666666" points="214.25,-58 115.75,-58 115.75,-38 214.25,-38 214.25,-58"/>
<text text-anchor="middle" x="165" y="-44.5" font-family="Helvetica,sans-Serif" font-size="10.00">container::contains</text>
</a>
</g>
</g>
<!-- Node1&#45;&gt;Node2 -->
<g id="edge1_Node000001_Node000002" class="edge">
<title>Node1&#45;&gt;Node2</title>
<g id="a_edge1_Node000001_Node000002"><a xlink:title=" ">
<path fill="none" stroke="#63b8ff" d="M80.17,-35.06C87.91,-36.26 96.2,-37.54 104.43,-38.81"/>
<polygon fill="#63b8ff" stroke="#63b8ff" points="103.67,-42.23 114.08,-40.3 104.74,-35.31 103.67,-42.23"/>
</a>
</g>
</g>
<!-- Node3 -->
<g id="Node000003" class="node">
<title>Node3</title>
<g id="a_Node000003"><a xlink:href="namespacecontainer.html#a8da995384f7c4ac2f15754ccd9eed3d9" target="_top" xlink:title="A compatability overload to emplace a value into either a vector or set.">
<polygon fill="white" stroke="#666666" points="214.25,-20 115.75,-20 115.75,0 214.25,0 214.25,-20"/>
<text text-anchor="middle" x="165" y="-6.5" font-family="Helvetica,sans-Serif" font-size="10.00">container::emplace</text>
</a>
</g>
</g>
<!-- Node1&#45;&gt;Node3 -->
<g id="edge2_Node000001_Node000003" class="edge">
<title>Node1&#45;&gt;Node3</title>
<g id="a_edge2_Node000001_Node000003"><a xlink:title=" ">
<path fill="none" stroke="#63b8ff" d="M80.17,-22.94C87.91,-21.74 96.2,-20.46 104.43,-19.19"/>
<polygon fill="#63b8ff" stroke="#63b8ff" points="104.74,-22.69 114.08,-17.7 103.67,-15.77 104.74,-22.69"/>
</a>
</g>
</g>
</g>
</svg>
