<?xml version="1.0" encoding="UTF-8" standalone="no"?>
<!DOCTYPE svg PUBLIC "-//W3C//DTD SVG 1.1//EN"
 "http://www.w3.org/Graphics/SVG/1.1/DTD/svg11.dtd">
<!-- Generated by graphviz version 12.2.1 (0)
 -->
<!-- Title: exec::setorize Pages: 1 -->
<svg width="458pt" height="85pt"
 viewBox="0.00 0.00 457.50 85.00" xmlns="http://www.w3.org/2000/svg" xmlns:xlink="http://www.w3.org/1999/xlink">
<g id="graph0" class="graph" transform="scale(1 1) rotate(0) translate(4 81)">
<title>exec::setorize</title>
<!-- Node1 -->
<g id="Node000001" class="node">
<title>Node1</title>
<g id="a_Node000001"><a xlink:title="A Blocking Parser that splits the output into a set.">
<polygon fill="#999999" stroke="#666666" points="77.5,-58 0,-58 0,-38 77.5,-38 77.5,-58"/>
<text text-anchor="middle" x="38.75" y="-44.5" font-family="Helvetica,sans-Serif" font-size="10.00">exec::setorize</text>
</a>
</g>
</g>
<!-- Node2 -->
<g id="Node000002" class="node">
<title>Node2</title>
<g id="a_Node000002"><a xlink:href="namespaceexec.html#a2358753ded3729bf53cb502692a4916f" target="_top" xlink:title="Split the contents of an FD.">
<polygon fill="white" stroke="#666666" points="199.25,-58 113.5,-58 113.5,-38 199.25,-38 199.25,-58"/>
<text text-anchor="middle" x="156.38" y="-44.5" font-family="Helvetica,sans-Serif" font-size="10.00">exec::fd_splitter</text>
</a>
</g>
</g>
<!-- Node1&#45;&gt;Node2 -->
<g id="edge1_Node000001_Node000002" class="edge">
<title>Node1&#45;&gt;Node2</title>
<g id="a_edge1_Node000001_Node000002"><a xlink:title=" ">
<path fill="none" stroke="#63b8ff" d="M77.93,-48C85.62,-48 93.84,-48 101.94,-48"/>
<polygon fill="#63b8ff" stroke="#63b8ff" points="101.73,-51.5 111.73,-48 101.73,-44.5 101.73,-51.5"/>
</a>
</g>
</g>
<!-- Node3 -->
<g id="Node000003" class="node">
<title>Node3</title>
<g id="a_Node000003"><a xlink:href="namespaceexec.html#acefd7c1b7ff76c9bcae275246c361497" target="_top" xlink:title="A Blocking Parser that returns the output in a single string.">
<polygon fill="white" stroke="#666666" points="308.62,-77 241.62,-77 241.62,-57 308.62,-57 308.62,-77"/>
<text text-anchor="middle" x="275.12" y="-63.5" font-family="Helvetica,sans-Serif" font-size="10.00">exec::dump</text>
</a>
</g>
</g>
<!-- Node2&#45;&gt;Node3 -->
<g id="edge2_Node000002_Node000003" class="edge">
<title>Node2&#45;&gt;Node3</title>
<g id="a_edge2_Node000002_Node000003"><a xlink:title=" ">
<path fill="none" stroke="#63b8ff" d="M199.52,-54.86C209.38,-56.46 219.91,-58.18 229.86,-59.8"/>
<polygon fill="#63b8ff" stroke="#63b8ff" points="229.27,-63.25 239.7,-61.4 230.39,-56.34 229.27,-63.25"/>
</a>
</g>
</g>
<!-- Node4 -->
<g id="Node000004" class="node">
<title>Node4</title>
<g id="a_Node000004"><a xlink:href="namespacecontainer.html#a71438ef7670d942e0013d4657cfcd103" target="_top" xlink:title="Split a string on a delimieter(s)">
<polygon fill="white" stroke="#666666" points="315,-39 235.25,-39 235.25,-19 315,-19 315,-39"/>
<text text-anchor="middle" x="275.12" y="-25.5" font-family="Helvetica,sans-Serif" font-size="10.00">container::split</text>
</a>
</g>
</g>
<!-- Node2&#45;&gt;Node4 -->
<g id="edge3_Node000002_Node000004" class="edge">
<title>Node2&#45;&gt;Node4</title>
<g id="a_edge3_Node000002_Node000004"><a xlink:title=" ">
<path fill="none" stroke="#63b8ff" d="M199.52,-41.14C207.34,-39.87 215.57,-38.53 223.61,-37.22"/>
<polygon fill="#63b8ff" stroke="#63b8ff" points="223.96,-40.71 233.27,-35.65 222.84,-33.8 223.96,-40.71"/>
</a>
</g>
</g>
<!-- Node5 -->
<g id="Node000005" class="node">
<title>Node5</title>
<g id="a_Node000005"><a xlink:href="namespacecontainer.html#a4d35060a24029e77189fd13e87c7bc89" target="_top" xlink:title="A compatability overload to check if a given character is contained in a single or multiple delimeter...">
<polygon fill="white" stroke="#666666" points="449.5,-58 351,-58 351,-38 449.5,-38 449.5,-58"/>
<text text-anchor="middle" x="400.25" y="-44.5" font-family="Helvetica,sans-Serif" font-size="10.00">container::contains</text>
</a>
</g>
</g>
<!-- Node4&#45;&gt;Node5 -->
<g id="edge4_Node000004_Node000005" class="edge">
<title>Node4&#45;&gt;Node5</title>
<g id="a_edge4_Node000004_Node000005"><a xlink:title=" ">
<path fill="none" stroke="#63b8ff" d="M315.42,-35.06C323.16,-36.26 331.45,-37.54 339.68,-38.81"/>
<polygon fill="#63b8ff" stroke="#63b8ff" points="338.92,-42.23 349.33,-40.3 339.99,-35.31 338.92,-42.23"/>
</a>
</g>
</g>
<!-- Node6 -->
<g id="Node000006" class="node">
<title>Node6</title>
<g id="a_Node000006"><a xlink:href="namespacecontainer.html#a8da995384f7c4ac2f15754ccd9eed3d9" target="_top" xlink:title="A compatability overload to emplace a value into either a vector or set.">
<polygon fill="white" stroke="#666666" points="449.5,-20 351,-20 351,0 449.5,0 449.5,-20"/>
<text text-anchor="middle" x="400.25" y="-6.5" font-family="Helvetica,sans-Serif" font-size="10.00">container::emplace</text>
</a>
</g>
</g>
<!-- Node4&#45;&gt;Node6 -->
<g id="edge5_Node000004_Node000006" class="edge">
<title>Node4&#45;&gt;Node6</title>
<g id="a_edge5_Node000004_Node000006"><a xlink:title=" ">
<path fill="none" stroke="#63b8ff" d="M315.42,-22.94C323.16,-21.74 331.45,-20.46 339.68,-19.19"/>
<polygon fill="#63b8ff" stroke="#63b8ff" points="339.99,-22.69 349.33,-17.7 338.92,-15.77 339.99,-22.69"/>
</a>
</g>
</g>
</g>
</svg>
