<?xml version="1.0" encoding="UTF-8" standalone="no"?>
<!DOCTYPE svg PUBLIC "-//W3C//DTD SVG 1.1//EN"
 "http://www.w3.org/Graphics/SVG/1.1/DTD/svg11.dtd">
<!-- Generated by graphviz version 12.2.1 (0)
 -->
<!-- Title: exec::fd_splitter Pages: 1 -->
<svg width="344pt" height="85pt"
 viewBox="0.00 0.00 344.00 85.00" xmlns="http://www.w3.org/2000/svg" xmlns:xlink="http://www.w3.org/1999/xlink">

<svg id="main" version="1.1" xmlns="http://www.w3.org/2000/svg" xmlns:xlink="http://www.w3.org/1999/xlink" xml:space="preserve">

<style type="text/css"><![CDATA[
.node, .edge {opacity: 0.7;}
.node.selected, .edge.selected {opacity: 1;}
.edge:hover path { stroke: red; }
.edge:hover polygon { stroke: red; fill: red; }
]]></style>
<script type="application/ecmascript" xlink:href="svg.min.js"/>
<svg id="graph" class="graph">
<g id="graph0" class="graph" transform="scale(1 1) rotate(0) translate(4 81)">
<title>exec::fd_splitter</title>
<!-- Node1 -->
<g id="Node000001" class="node">
<title>Node1</title>
<g id="a_Node000001"><a xlink:title="Split the contents of an FD.">
<polygon fill="#999999" stroke="#666666" points="85.75,-58 0,-58 0,-38 85.75,-38 85.75,-58"/>
<text text-anchor="middle" x="42.88" y="-44.5" font-family="Helvetica,sans-Serif" font-size="10.00">exec::fd_splitter</text>
</a>
</g>
</g>
<!-- Node2 -->
<g id="Node000002" class="node">
<title>Node2</title>
<g id="a_Node000002"><a xlink:href="namespaceexec.html#acefd7c1b7ff76c9bcae275246c361497" target="_top" xlink:title="A Blocking Parser that returns the output in a single string.">
<polygon fill="white" stroke="#666666" points="195.12,-77 128.12,-77 128.12,-57 195.12,-57 195.12,-77"/>
<text text-anchor="middle" x="161.62" y="-63.5" font-family="Helvetica,sans-Serif" font-size="10.00">exec::dump</text>
</a>
</g>
</g>
<!-- Node1&#45;&gt;Node2 -->
<g id="edge1_Node000001_Node000002" class="edge">
<title>Node1&#45;&gt;Node2</title>
<g id="a_edge1_Node000001_Node000002"><a xlink:title=" ">
<path fill="none" stroke="#63b8ff" d="M86.02,-54.86C95.88,-56.46 106.41,-58.18 116.36,-59.8"/>
<polygon fill="#63b8ff" stroke="#63b8ff" points="115.77,-63.25 126.2,-61.4 116.89,-56.34 115.77,-63.25"/>
</a>
</g>
</g>
<!-- Node3 -->
<g id="Node000003" class="node">
<title>Node3</title>
<g id="a_Node000003"><a xlink:href="namespacecontainer.html#a71438ef7670d942e0013d4657cfcd103" target="_top" xlink:title="Split a string on a delimieter(s)">
<polygon fill="white" stroke="#666666" points="201.5,-39 121.75,-39 121.75,-19 201.5,-19 201.5,-39"/>
<text text-anchor="middle" x="161.62" y="-25.5" font-family="Helvetica,sans-Serif" font-size="10.00">container::split</text>
</a>
</g>
</g>
<!-- Node1&#45;&gt;Node3 -->
<g id="edge2_Node000001_Node000003" class="edge">
<title>Node1&#45;&gt;Node3</title>
<g id="a_edge2_Node000001_Node000003"><a xlink:title=" ">
<path fill="none" stroke="#63b8ff" d="M86.02,-41.14C93.84,-39.87 102.07,-38.53 110.11,-37.22"/>
<polygon fill="#63b8ff" stroke="#63b8ff" points="110.46,-40.71 119.77,-35.65 109.34,-33.8 110.46,-40.71"/>
</a>
</g>
</g>
<!-- Node4 -->
<g id="Node000004" class="node">
<title>Node4</title>
<g id="a_Node000004"><a xlink:href="namespacecontainer.html#a4d35060a24029e77189fd13e87c7bc89" target="_top" xlink:title="A compatability overload to check if a given character is contained in a single or multiple delimeter...">
<polygon fill="white" stroke="#666666" points="336,-58 237.5,-58 237.5,-38 336,-38 336,-58"/>
<text text-anchor="middle" x="286.75" y="-44.5" font-family="Helvetica,sans-Serif" font-size="10.00">container::contains</text>
</a>
</g>
</g>
<!-- Node3&#45;&gt;Node4 -->
<g id="edge3_Node000003_Node000004" class="edge">
<title>Node3&#45;&gt;Node4</title>
<g id="a_edge3_Node000003_Node000004"><a xlink:title=" ">
<path fill="none" stroke="#63b8ff" d="M201.92,-35.06C209.66,-36.26 217.95,-37.54 226.18,-38.81"/>
<polygon fill="#63b8ff" stroke="#63b8ff" points="225.42,-42.23 235.83,-40.3 226.49,-35.31 225.42,-42.23"/>
</a>
</g>
</g>
<!-- Node5 -->
<g id="Node000005" class="node">
<title>Node5</title>
<g id="a_Node000005"><a xlink:href="namespacecontainer.html#a8da995384f7c4ac2f15754ccd9eed3d9" target="_top" xlink:title="A compatability overload to emplace a value into either a vector or set.">
<polygon fill="white" stroke="#666666" points="336,-20 237.5,-20 237.5,0 336,0 336,-20"/>
<text text-anchor="middle" x="286.75" y="-6.5" font-family="Helvetica,sans-Serif" font-size="10.00">container::emplace</text>
</a>
</g>
</g>
<!-- Node3&#45;&gt;Node5 -->
<g id="edge4_Node000003_Node000005" class="edge">
<title>Node3&#45;&gt;Node5</title>
<g id="a_edge4_Node000003_Node000005"><a xlink:title=" ">
<path fill="none" stroke="#63b8ff" d="M201.92,-22.94C209.66,-21.74 217.95,-20.46 226.18,-19.19"/>
<polygon fill="#63b8ff" stroke="#63b8ff" points="226.49,-22.69 235.83,-17.7 225.42,-15.77 226.49,-22.69"/>
</a>
</g>
</g>
</g>
</svg>
</svg>

<style type='text/css'>
<![CDATA[
[data-mouse-over-selected='false'] { opacity: 0.7; }
[data-mouse-over-selected='true']  { opacity: 1.0; }
]]>
</style>
<script type="application/ecmascript"><![CDATA[
document.addEventListener('DOMContentLoaded', (event) => {
  highlightEdges();
  highlightAdjacentNodes();
});
]]></script>
</svg>
