<?xml version="1.0" encoding="UTF-8" standalone="no"?>
<!DOCTYPE svg PUBLIC "-//W3C//DTD SVG 1.1//EN"
 "http://www.w3.org/Graphics/SVG/1.1/DTD/svg11.dtd">
<!-- Generated by graphviz version 12.2.1 (0)
 -->
<!-- Title: container::emplace Pages: 1 -->
<svg width="463pt" height="66pt"
 viewBox="0.00 0.00 462.75 66.00" xmlns="http://www.w3.org/2000/svg" xmlns:xlink="http://www.w3.org/1999/xlink">

<svg id="main" version="1.1" xmlns="http://www.w3.org/2000/svg" xmlns:xlink="http://www.w3.org/1999/xlink" xml:space="preserve">

<style type="text/css"><![CDATA[
.node, .edge {opacity: 0.7;}
.node.selected, .edge.selected {opacity: 1;}
.edge:hover path { stroke: red; }
.edge:hover polygon { stroke: red; fill: red; }
]]></style>
<script type="application/ecmascript" xlink:href="svg.min.js"/>
<svg id="graph" class="graph">
<g id="graph0" class="graph" transform="scale(1 1) rotate(0) translate(4 62)">
<title>container::emplace</title>
<!-- Node1 -->
<g id="Node000001" class="node">
<title>Node1</title>
<g id="a_Node000001"><a xlink:title="A compatability overload to emplace a value into either a vector or set.">
<polygon fill="#999999" stroke="#666666" points="454.75,-39 356.25,-39 356.25,-19 454.75,-19 454.75,-39"/>
<text text-anchor="middle" x="405.5" y="-25.5" font-family="Helvetica,sans-Serif" font-size="10.00">container::emplace</text>
</a>
</g>
</g>
<!-- Node2 -->
<g id="Node000002" class="node">
<title>Node2</title>
<g id="a_Node000002"><a xlink:href="namespacecontainer.html#a71438ef7670d942e0013d4657cfcd103" target="_top" xlink:title="Split a string on a delimieter(s)">
<polygon fill="white" stroke="#666666" points="320.25,-39 240.5,-39 240.5,-19 320.25,-19 320.25,-39"/>
<text text-anchor="middle" x="280.38" y="-25.5" font-family="Helvetica,sans-Serif" font-size="10.00">container::split</text>
</a>
</g>
</g>
<!-- Node1&#45;&gt;Node2 -->
<g id="edge1_Node000001_Node000002" class="edge">
<title>Node1&#45;&gt;Node2</title>
<g id="a_edge1_Node000001_Node000002"><a xlink:title=" ">
<path fill="none" stroke="#63b8ff" d="M344.46,-29C336.35,-29 328.21,-29 320.59,-29"/>
<polygon fill="#63b8ff" stroke="#63b8ff" points="344.32,-32.5 354.32,-29 344.32,-25.5 344.32,-32.5"/>
</a>
</g>
</g>
<!-- Node3 -->
<g id="Node000003" class="node">
<title>Node3</title>
<g id="a_Node000003"><a xlink:href="namespaceexec.html#a2358753ded3729bf53cb502692a4916f" target="_top" xlink:title="Split the contents of an FD.">
<polygon fill="white" stroke="#666666" points="204.5,-39 118.75,-39 118.75,-19 204.5,-19 204.5,-39"/>
<text text-anchor="middle" x="161.62" y="-25.5" font-family="Helvetica,sans-Serif" font-size="10.00">exec::fd_splitter</text>
</a>
</g>
</g>
<!-- Node2&#45;&gt;Node3 -->
<g id="edge2_Node000002_Node000003" class="edge">
<title>Node2&#45;&gt;Node3</title>
<g id="a_edge2_Node000002_Node000003"><a xlink:title=" ">
<path fill="none" stroke="#63b8ff" d="M228.68,-29C220.68,-29 212.5,-29 204.73,-29"/>
<polygon fill="#63b8ff" stroke="#63b8ff" points="228.66,-32.5 238.66,-29 228.66,-25.5 228.66,-32.5"/>
</a>
</g>
</g>
<!-- Node4 -->
<g id="Node000004" class="node">
<title>Node4</title>
<g id="a_Node000004"><a xlink:href="namespaceexec.html#ac8a6404f4a45a34094f1dd1faa18e282" target="_top" xlink:title="A Blocking Parser that splits the output into a set.">
<polygon fill="white" stroke="#666666" points="80.12,-58 2.62,-58 2.62,-38 80.12,-38 80.12,-58"/>
<text text-anchor="middle" x="41.38" y="-44.5" font-family="Helvetica,sans-Serif" font-size="10.00">exec::setorize</text>
</a>
</g>
</g>
<!-- Node3&#45;&gt;Node4 -->
<g id="edge3_Node000003_Node000004" class="edge">
<title>Node3&#45;&gt;Node4</title>
<g id="a_edge3_Node000003_Node000004"><a xlink:title=" ">
<path fill="none" stroke="#63b8ff" d="M107.07,-37.6C98.11,-39.04 88.98,-40.51 80.51,-41.87"/>
<polygon fill="#63b8ff" stroke="#63b8ff" points="107.46,-41.09 116.77,-36.05 106.35,-34.18 107.46,-41.09"/>
</a>
</g>
</g>
<!-- Node5 -->
<g id="Node000005" class="node">
<title>Node5</title>
<g id="a_Node000005"><a xlink:href="namespaceexec.html#ab5d472fad028ae03ed72e9f9e4f285d0" target="_top" xlink:title="A Blocking Parser that splits the output into a vector.">
<polygon fill="white" stroke="#666666" points="82.75,-20 0,-20 0,0 82.75,0 82.75,-20"/>
<text text-anchor="middle" x="41.38" y="-6.5" font-family="Helvetica,sans-Serif" font-size="10.00">exec::vectorize</text>
</a>
</g>
</g>
<!-- Node3&#45;&gt;Node5 -->
<g id="edge4_Node000003_Node000005" class="edge">
<title>Node3&#45;&gt;Node5</title>
<g id="a_edge4_Node000003_Node000005"><a xlink:title=" ">
<path fill="none" stroke="#63b8ff" d="M107.1,-20.4C99.09,-19.11 90.94,-17.8 83.25,-16.57"/>
<polygon fill="#63b8ff" stroke="#63b8ff" points="106.35,-23.82 116.77,-21.95 107.46,-16.91 106.35,-23.82"/>
</a>
</g>
</g>
</g>
</svg>
</svg>

<style type='text/css'>
<![CDATA[
[data-mouse-over-selected='false'] { opacity: 0.7; }
[data-mouse-over-selected='true']  { opacity: 1.0; }
]]>
</style>
<script type="application/ecmascript"><![CDATA[
document.addEventListener('DOMContentLoaded', (event) => {
  highlightEdges();
  highlightAdjacentNodes();
});
]]></script>
</svg>
