<?xml version="1.0" encoding="UTF-8" standalone="no"?>
<!DOCTYPE svg PUBLIC "-//W3C//DTD SVG 1.1//EN"
 "http://www.w3.org/Graphics/SVG/1.1/DTD/svg11.dtd">
<!-- Generated by graphviz version 12.2.1 (0)
 -->
<!-- Title: exec::vectorize Pages: 1 -->
<svg width="463pt" height="85pt"
 viewBox="0.00 0.00 462.75 85.00" xmlns="http://www.w3.org/2000/svg" xmlns:xlink="http://www.w3.org/1999/xlink">
<g id="graph0" class="graph" transform="scale(1 1) rotate(0) translate(4 81)">
<title>exec::vectorize</title>
<!-- Node1 -->
<g id="Node000001" class="node">
<title>Node1</title>
<g id="a_Node000001"><a xlink:title="A Blocking Parser that splits the output into a vector.">
<polygon fill="#999999" stroke="#666666" points="82.75,-58 0,-58 0,-38 82.75,-38 82.75,-58"/>
<text text-anchor="middle" x="41.38" y="-44.5" font-family="Helvetica,sans-Serif" font-size="10.00">exec::vectorize</text>
</a>
</g>
</g>
<!-- Node2 -->
<g id="Node000002" class="node">
<title>Node2</title>
<g id="a_Node000002"><a xlink:href="namespaceexec.html#a2358753ded3729bf53cb502692a4916f" target="_top" xlink:title="Split the contents of an FD.">
<polygon fill="white" stroke="#666666" points="204.5,-58 118.75,-58 118.75,-38 204.5,-38 204.5,-58"/>
<text text-anchor="middle" x="161.62" y="-44.5" font-family="Helvetica,sans-Serif" font-size="10.00">exec::fd_splitter</text>
</a>
</g>
</g>
<!-- Node1&#45;&gt;Node2 -->
<g id="edge1_Node000001_Node000002" class="edge">
<title>Node1&#45;&gt;Node2</title>
<g id="a_edge1_Node000001_Node000002"><a xlink:title=" ">
<path fill="none" stroke="#63b8ff" d="M83.07,-48C90.88,-48 99.17,-48 107.31,-48"/>
<polygon fill="#63b8ff" stroke="#63b8ff" points="107.13,-51.5 117.13,-48 107.13,-44.5 107.13,-51.5"/>
</a>
</g>
</g>
<!-- Node3 -->
<g id="Node000003" class="node">
<title>Node3</title>
<g id="a_Node000003"><a xlink:href="namespaceexec.html#acefd7c1b7ff76c9bcae275246c361497" target="_top" xlink:title="A Blocking Parser that returns the output in a single string.">
<polygon fill="white" stroke="#666666" points="313.88,-77 246.88,-77 246.88,-57 313.88,-57 313.88,-77"/>
<text text-anchor="middle" x="280.38" y="-63.5" font-family="Helvetica,sans-Serif" font-size="10.00">exec::dump</text>
</a>
</g>
</g>
<!-- Node2&#45;&gt;Node3 -->
<g id="edge2_Node000002_Node000003" class="edge">
<title>Node2&#45;&gt;Node3</title>
<g id="a_edge2_Node000002_Node000003"><a xlink:title=" ">
<path fill="none" stroke="#63b8ff" d="M204.77,-54.86C214.63,-56.46 225.16,-58.18 235.11,-59.8"/>
<polygon fill="#63b8ff" stroke="#63b8ff" points="234.52,-63.25 244.95,-61.4 235.64,-56.34 234.52,-63.25"/>
</a>
</g>
</g>
<!-- Node4 -->
<g id="Node000004" class="node">
<title>Node4</title>
<g id="a_Node000004"><a xlink:href="namespacecontainer.html#a71438ef7670d942e0013d4657cfcd103" target="_top" xlink:title="Split a string on a delimieter(s)">
<polygon fill="white" stroke="#666666" points="320.25,-39 240.5,-39 240.5,-19 320.25,-19 320.25,-39"/>
<text text-anchor="middle" x="280.38" y="-25.5" font-family="Helvetica,sans-Serif" font-size="10.00">container::split</text>
</a>
</g>
</g>
<!-- Node2&#45;&gt;Node4 -->
<g id="edge3_Node000002_Node000004" class="edge">
<title>Node2&#45;&gt;Node4</title>
<g id="a_edge3_Node000002_Node000004"><a xlink:title=" ">
<path fill="none" stroke="#63b8ff" d="M204.77,-41.14C212.59,-39.87 220.82,-38.53 228.86,-37.22"/>
<polygon fill="#63b8ff" stroke="#63b8ff" points="229.21,-40.71 238.52,-35.65 228.09,-33.8 229.21,-40.71"/>
</a>
</g>
</g>
<!-- Node5 -->
<g id="Node000005" class="node">
<title>Node5</title>
<g id="a_Node000005"><a xlink:href="namespacecontainer.html#a4d35060a24029e77189fd13e87c7bc89" target="_top" xlink:title="A compatability overload to check if a given character is contained in a single or multiple delimeter...">
<polygon fill="white" stroke="#666666" points="454.75,-58 356.25,-58 356.25,-38 454.75,-38 454.75,-58"/>
<text text-anchor="middle" x="405.5" y="-44.5" font-family="Helvetica,sans-Serif" font-size="10.00">container::contains</text>
</a>
</g>
</g>
<!-- Node4&#45;&gt;Node5 -->
<g id="edge4_Node000004_Node000005" class="edge">
<title>Node4&#45;&gt;Node5</title>
<g id="a_edge4_Node000004_Node000005"><a xlink:title=" ">
<path fill="none" stroke="#63b8ff" d="M320.67,-35.06C328.41,-36.26 336.7,-37.54 344.93,-38.81"/>
<polygon fill="#63b8ff" stroke="#63b8ff" points="344.17,-42.23 354.58,-40.3 345.24,-35.31 344.17,-42.23"/>
</a>
</g>
</g>
<!-- Node6 -->
<g id="Node000006" class="node">
<title>Node6</title>
<g id="a_Node000006"><a xlink:href="namespacecontainer.html#a8da995384f7c4ac2f15754ccd9eed3d9" target="_top" xlink:title="A compatability overload to emplace a value into either a vector or set.">
<polygon fill="white" stroke="#666666" points="454.75,-20 356.25,-20 356.25,0 454.75,0 454.75,-20"/>
<text text-anchor="middle" x="405.5" y="-6.5" font-family="Helvetica,sans-Serif" font-size="10.00">container::emplace</text>
</a>
</g>
</g>
<!-- Node4&#45;&gt;Node6 -->
<g id="edge5_Node000004_Node000006" class="edge">
<title>Node4&#45;&gt;Node6</title>
<g id="a_edge5_Node000004_Node000006"><a xlink:title=" ">
<path fill="none" stroke="#63b8ff" d="M320.67,-22.94C328.41,-21.74 336.7,-20.46 344.93,-19.19"/>
<polygon fill="#63b8ff" stroke="#63b8ff" points="345.24,-22.69 354.58,-17.7 344.17,-15.77 345.24,-22.69"/>
</a>
</g>
</g>
</g>
</svg>
