<?xml version="1.0" encoding="UTF-8" standalone="no"?>
<!DOCTYPE svg PUBLIC "-//W3C//DTD SVG 1.1//EN"
 "http://www.w3.org/Graphics/SVG/1.1/DTD/svg11.dtd">
<!-- Generated by graphviz version 12.2.1 (0)
 -->
<!-- Title: exec::options Pages: 1 -->
<svg width="94pt" height="277pt"
 viewBox="0.00 0.00 94.00 277.00" xmlns="http://www.w3.org/2000/svg" xmlns:xlink="http://www.w3.org/1999/xlink">

<svg id="main" version="1.1" xmlns="http://www.w3.org/2000/svg" xmlns:xlink="http://www.w3.org/1999/xlink" xml:space="preserve">

<style type="text/css"><![CDATA[
.node, .edge {opacity: 0.7;}
.node.selected, .edge.selected {opacity: 1;}
.edge:hover path { stroke: red; }
.edge:hover polygon { stroke: red; fill: red; }
]]></style>
<script type="application/ecmascript" xlink:href="svg.min.js"/>
<svg id="graph" class="graph">
<g id="graph0" class="graph" transform="scale(1 1) rotate(0) translate(4 273)">
<title>exec::options</title>
<!-- Node1 -->
<g id="Node000001" class="node">
<title>Node1</title>
<g id="a_Node000001"><a xlink:title="Arguments passed to the executor.">
<polygon fill="#999999" stroke="none" points="76.25,-68 9.75,-68 9.75,0 76.25,0 76.25,-68"/>
<text text-anchor="start" x="13.75" y="-54.5" font-family="Helvetica,sans-Serif" font-size="10.00">exec::options</text>
<text text-anchor="start" x="17.25" y="-38.5" font-family="Helvetica,sans-Serif" font-size="10.00">+</text>
<text text-anchor="start" x="30.75" y="-38.5" font-family="Helvetica,sans-Serif" font-size="10.00">cap</text>
<text text-anchor="start" x="17.25" y="-22.5" font-family="Helvetica,sans-Serif" font-size="10.00">+</text>
<text text-anchor="start" x="30.75" y="-22.5" font-family="Helvetica,sans-Serif" font-size="10.00">verbose</text>
<text text-anchor="start" x="41.5" y="-6.5" font-family="Helvetica,sans-Serif" font-size="10.00"> </text>
<polygon fill="#666666" stroke="#666666" points="9.75,-50 9.75,-50 76.25,-50 76.25,-50 9.75,-50"/>
<polygon fill="#666666" stroke="#666666" points="9.75,-18 9.75,-18 28.75,-18 28.75,-18 9.75,-18"/>
<polygon fill="#666666" stroke="#666666" points="28.75,-18 28.75,-18 76.25,-18 76.25,-18 28.75,-18"/>
<polygon fill="none" stroke="#666666" points="9.75,0 9.75,-68 76.25,-68 76.25,0 9.75,0"/>
</a>
</g>
</g>
<!-- Node2 -->
<g id="Node000002" class="node">
<title>Node2</title>
<g id="a_Node000002"><a xlink:title=" ">
<polygon fill="white" stroke="none" points="68.75,-168 17.25,-168 17.25,-116 68.75,-116 68.75,-168"/>
<text text-anchor="start" x="21.25" y="-154.5" font-family="Helvetica,sans-Serif" font-size="10.00">std::string</text>
<text text-anchor="start" x="41.5" y="-138.5" font-family="Helvetica,sans-Serif" font-size="10.00"> </text>
<text text-anchor="start" x="41.5" y="-122.5" font-family="Helvetica,sans-Serif" font-size="10.00"> </text>
<polygon fill="#666666" stroke="#666666" points="17.25,-150 17.25,-150 68.75,-150 68.75,-150 17.25,-150"/>
<polygon fill="#666666" stroke="#666666" points="17.25,-134 17.25,-134 68.75,-134 68.75,-134 17.25,-134"/>
<polygon fill="none" stroke="#666666" points="17.25,-116 17.25,-168 68.75,-168 68.75,-116 17.25,-116"/>
</a>
</g>
</g>
<!-- Node2&#45;&gt;Node1 -->
<g id="edge1_Node000001_Node000002" class="edge">
<title>Node2&#45;&gt;Node1</title>
<g id="a_edge1_Node000001_Node000002"><a xlink:title=" ">
<path fill="none" stroke="#63b8ff" d="M43,-116.15C43,-105.54 43,-92.82 43,-80.63"/>
<polygon fill="none" stroke="#63b8ff" points="43,-80.63 39,-74.63 43,-68.63 47,-74.63 43,-80.63"/>
</a>
</g>
<text text-anchor="middle" x="51.25" y="-88.5" font-family="Helvetica,sans-Serif" font-size="10.00" fill="grey"> +in</text>
</g>
<!-- Node3 -->
<g id="Node000003" class="node">
<title>Node3</title>
<g id="a_Node000003"><a xlink:title=" ">
<polygon fill="white" stroke="none" points="86,-269 0,-269 0,-205 86,-205 86,-269"/>
<text text-anchor="start" x="4" y="-255.5" font-family="Helvetica,sans-Serif" font-size="10.00">std::basic_string&lt;</text>
<text text-anchor="start" x="26.5" y="-243.5" font-family="Helvetica,sans-Serif" font-size="10.00"> Char &gt;</text>
<text text-anchor="start" x="41.5" y="-227.5" font-family="Helvetica,sans-Serif" font-size="10.00"> </text>
<text text-anchor="start" x="41.5" y="-211.5" font-family="Helvetica,sans-Serif" font-size="10.00"> </text>
<polygon fill="#666666" stroke="#666666" points="0,-239 0,-239 86,-239 86,-239 0,-239"/>
<polygon fill="#666666" stroke="#666666" points="0,-223 0,-223 86,-223 86,-223 0,-223"/>
<polygon fill="none" stroke="#666666" points="0,-205 0,-269 86,-269 86,-205 0,-205"/>
</a>
</g>
</g>
<!-- Node3&#45;&gt;Node2 -->
<g id="edge2_Node000002_Node000003" class="edge">
<title>Node3&#45;&gt;Node2</title>
<g id="a_edge2_Node000002_Node000003"><a xlink:title=" ">
<path fill="none" stroke="#63b8ff" d="M43,-193.69C43,-184.89 43,-175.89 43,-167.96"/>
<polygon fill="none" stroke="#63b8ff" points="39.5,-193.52 43,-203.52 46.5,-193.52 39.5,-193.52"/>
</a>
</g>
</g>
</g>
</svg>
</svg>

<style type='text/css'>
<![CDATA[
[data-mouse-over-selected='false'] { opacity: 0.7; }
[data-mouse-over-selected='true']  { opacity: 1.0; }
]]>
</style>
<script type="application/ecmascript"><![CDATA[
document.addEventListener('DOMContentLoaded', (event) => {
  highlightEdges();
  highlightAdjacentNodes();
});
]]></script>
</svg>
